<mxfile host="app.diagrams.net" modified="2024-06-12T14:44:02.481Z" agent="Mozilla/5.0 (Windows NT 10.0; Win64; x64) AppleWebKit/537.36 (KHTML, like Gecko) Chrome/125.0.0.0 Safari/537.36" etag="Vfj5vHl_rYEuzizdr42n" version="24.5.3" type="google">
  <diagram name="Doctor" id="FFYVuZrISYTFPhVnSGJh">
    <mxGraphModel grid="1" page="1" gridSize="10" guides="1" tooltips="1" connect="1" arrows="1" fold="1" pageScale="1" pageWidth="200000" pageHeight="200000" math="0" shadow="0">
      <root>
        <mxCell id="Q4glN3iVvKNpuo2n6neO-0" />
        <mxCell id="Q4glN3iVvKNpuo2n6neO-1" parent="Q4glN3iVvKNpuo2n6neO-0" />
        <mxCell id="Q4glN3iVvKNpuo2n6neO-2" value="&lt;font style=&quot;vertical-align: inherit;&quot;&gt;&lt;font style=&quot;vertical-align: inherit;&quot;&gt;DOCTOR&lt;/font&gt;&lt;/font&gt;" style="shape=umlActor;verticalLabelPosition=bottom;verticalAlign=top;html=1;" vertex="1" parent="Q4glN3iVvKNpuo2n6neO-1">
          <mxGeometry x="40" y="335" width="30" height="60" as="geometry" />
        </mxCell>
        <mxCell id="Q4glN3iVvKNpuo2n6neO-3" value="CU1:Inicio Sesion" style="ellipse;whiteSpace=wrap;html=1;" vertex="1" parent="Q4glN3iVvKNpuo2n6neO-1">
          <mxGeometry x="170" y="347.5" width="70" height="45" as="geometry" />
        </mxCell>
        <mxCell id="Q4glN3iVvKNpuo2n6neO-9" value="CU5:Asignacion de citas" style="ellipse;whiteSpace=wrap;html=1;" vertex="1" parent="Q4glN3iVvKNpuo2n6neO-1">
          <mxGeometry x="430" y="345" width="100" height="50" as="geometry" />
        </mxCell>
        <mxCell id="Q4glN3iVvKNpuo2n6neO-10" value="Extends" style="endArrow=block;endSize=16;endFill=0;html=1;rounded=0;" edge="1" parent="Q4glN3iVvKNpuo2n6neO-1">
          <mxGeometry width="160" relative="1" as="geometry">
            <mxPoint x="70" y="370" as="sourcePoint" />
            <mxPoint x="170" y="370" as="targetPoint" />
          </mxGeometry>
        </mxCell>
        <mxCell id="Q4glN3iVvKNpuo2n6neO-11" value="Use" style="endArrow=open;endSize=12;dashed=1;html=1;rounded=0;" edge="1" parent="Q4glN3iVvKNpuo2n6neO-1" source="Q4glN3iVvKNpuo2n6neO-3" target="Q4glN3iVvKNpuo2n6neO-9">
          <mxGeometry width="160" relative="1" as="geometry">
            <mxPoint x="240" y="370" as="sourcePoint" />
            <mxPoint x="280" y="370" as="targetPoint" />
          </mxGeometry>
        </mxCell>
        <mxCell id="Q4glN3iVvKNpuo2n6neO-13" value="Use" style="endArrow=open;endSize=12;dashed=1;html=1;rounded=0;exitX=0.94;exitY=0.797;exitDx=0;exitDy=0;exitPerimeter=0;" edge="1" parent="Q4glN3iVvKNpuo2n6neO-1" source="Q4glN3iVvKNpuo2n6neO-3" target="Q4glN3iVvKNpuo2n6neO-18">
          <mxGeometry width="160" relative="1" as="geometry">
            <mxPoint x="220" y="400" as="sourcePoint" />
            <mxPoint x="300.6400000000001" y="425.44000000000005" as="targetPoint" />
          </mxGeometry>
        </mxCell>
        <mxCell id="Q4glN3iVvKNpuo2n6neO-14" value="CU8: Lectura de resultados" style="ellipse;whiteSpace=wrap;html=1;" vertex="1" parent="Q4glN3iVvKNpuo2n6neO-1">
          <mxGeometry x="560" y="500" width="100" height="40" as="geometry" />
        </mxCell>
        <mxCell id="Q4glN3iVvKNpuo2n6neO-18" value="CU6: Asignacion deExamen" style="ellipse;whiteSpace=wrap;html=1;" vertex="1" parent="Q4glN3iVvKNpuo2n6neO-1">
          <mxGeometry x="430" y="460" width="100" height="40" as="geometry" />
        </mxCell>
        <mxCell id="Q4glN3iVvKNpuo2n6neO-20" value="Extends" style="endArrow=block;endSize=16;endFill=0;html=1;rounded=0;exitX=0.996;exitY=0.636;exitDx=0;exitDy=0;exitPerimeter=0;" edge="1" parent="Q4glN3iVvKNpuo2n6neO-1" source="Q4glN3iVvKNpuo2n6neO-18" target="Q4glN3iVvKNpuo2n6neO-14">
          <mxGeometry width="160" relative="1" as="geometry">
            <mxPoint x="400" y="520" as="sourcePoint" />
            <mxPoint x="560" y="520" as="targetPoint" />
          </mxGeometry>
        </mxCell>
        <mxCell id="Q4glN3iVvKNpuo2n6neO-21" value="CU9:Bases de datos" style="ellipse;whiteSpace=wrap;html=1;" vertex="1" parent="Q4glN3iVvKNpuo2n6neO-1">
          <mxGeometry x="200" y="470" width="90" height="70" as="geometry" />
        </mxCell>
        <mxCell id="Q4glN3iVvKNpuo2n6neO-22" value="Use" style="endArrow=open;endSize=12;dashed=1;html=1;rounded=0;" edge="1" parent="Q4glN3iVvKNpuo2n6neO-1" source="Q4glN3iVvKNpuo2n6neO-3" target="Q4glN3iVvKNpuo2n6neO-21">
          <mxGeometry width="160" relative="1" as="geometry">
            <mxPoint x="70" y="519.66" as="sourcePoint" />
            <mxPoint x="230" y="519.66" as="targetPoint" />
          </mxGeometry>
        </mxCell>
        <mxCell id="Q4glN3iVvKNpuo2n6neO-23" value="CU10: Historial medico paciente" style="ellipse;whiteSpace=wrap;html=1;" vertex="1" parent="Q4glN3iVvKNpuo2n6neO-1">
          <mxGeometry x="210" y="580" width="90" height="60" as="geometry" />
        </mxCell>
        <mxCell id="Q4glN3iVvKNpuo2n6neO-24" value="Use" style="endArrow=open;endSize=12;dashed=1;html=1;rounded=0;exitX=0.559;exitY=1.048;exitDx=0;exitDy=0;exitPerimeter=0;" edge="1" parent="Q4glN3iVvKNpuo2n6neO-1" source="Q4glN3iVvKNpuo2n6neO-21" target="Q4glN3iVvKNpuo2n6neO-23">
          <mxGeometry width="160" relative="1" as="geometry">
            <mxPoint x="260" y="550" as="sourcePoint" />
            <mxPoint x="420" y="550" as="targetPoint" />
          </mxGeometry>
        </mxCell>
        <mxCell id="Q4glN3iVvKNpuo2n6neO-27" value="CU12:Receta de medicamentos&lt;div&gt;&lt;br&gt;&lt;/div&gt;" style="ellipse;whiteSpace=wrap;html=1;" vertex="1" parent="Q4glN3iVvKNpuo2n6neO-1">
          <mxGeometry x="620" y="353" width="110" height="47" as="geometry" />
        </mxCell>
        <mxCell id="Q4glN3iVvKNpuo2n6neO-28" value="Use" style="endArrow=open;endSize=12;dashed=1;html=1;rounded=0;" edge="1" parent="Q4glN3iVvKNpuo2n6neO-1" source="Q4glN3iVvKNpuo2n6neO-9" target="Q4glN3iVvKNpuo2n6neO-27">
          <mxGeometry width="160" relative="1" as="geometry">
            <mxPoint x="530" y="370" as="sourcePoint" />
            <mxPoint x="680" y="310" as="targetPoint" />
          </mxGeometry>
        </mxCell>
        <mxCell id="Q4glN3iVvKNpuo2n6neO-29" value="CU13:Autorizacion de medicamentos&amp;nbsp;" style="ellipse;whiteSpace=wrap;html=1;" vertex="1" parent="Q4glN3iVvKNpuo2n6neO-1">
          <mxGeometry x="770" y="350" width="120" height="60" as="geometry" />
        </mxCell>
        <mxCell id="Q4glN3iVvKNpuo2n6neO-30" value="Use" style="endArrow=open;endSize=12;dashed=1;html=1;rounded=0;" edge="1" parent="Q4glN3iVvKNpuo2n6neO-1" source="Q4glN3iVvKNpuo2n6neO-27" target="Q4glN3iVvKNpuo2n6neO-29">
          <mxGeometry width="160" relative="1" as="geometry">
            <mxPoint x="690" y="440" as="sourcePoint" />
            <mxPoint x="850" y="440" as="targetPoint" />
          </mxGeometry>
        </mxCell>
        <mxCell id="Q4glN3iVvKNpuo2n6neO-37" value="CU17: Subir resultados&lt;div&gt;&lt;br&gt;&lt;/div&gt;" style="ellipse;whiteSpace=wrap;html=1;" vertex="1" parent="Q4glN3iVvKNpuo2n6neO-1">
          <mxGeometry x="550" y="400" width="80" height="40" as="geometry" />
        </mxCell>
        <mxCell id="Q4glN3iVvKNpuo2n6neO-38" value="Use" style="endArrow=open;endSize=12;dashed=1;html=1;rounded=0;" edge="1" parent="Q4glN3iVvKNpuo2n6neO-1" source="Q4glN3iVvKNpuo2n6neO-18" target="Q4glN3iVvKNpuo2n6neO-37">
          <mxGeometry width="160" relative="1" as="geometry">
            <mxPoint x="480" y="460" as="sourcePoint" />
            <mxPoint x="640" y="460" as="targetPoint" />
          </mxGeometry>
        </mxCell>
        <mxCell id="Q4glN3iVvKNpuo2n6neO-39" value="Use" style="endArrow=open;endSize=12;dashed=1;html=1;rounded=0;" edge="1" parent="Q4glN3iVvKNpuo2n6neO-1" source="Q4glN3iVvKNpuo2n6neO-37" target="Q4glN3iVvKNpuo2n6neO-14">
          <mxGeometry width="160" relative="1" as="geometry">
            <mxPoint x="640" y="460" as="sourcePoint" />
            <mxPoint x="800" y="460" as="targetPoint" />
          </mxGeometry>
        </mxCell>
        <mxCell id="3aS7QNv1p8n4nwQDoTD7-0" value="Agenda doctor" style="ellipse;whiteSpace=wrap;html=1;" vertex="1" parent="Q4glN3iVvKNpuo2n6neO-1">
          <mxGeometry x="340" y="550" width="80" height="30" as="geometry" />
        </mxCell>
        <mxCell id="JweaTmwqVTBMnrEeE_Z3-0" value="Extends" style="endArrow=block;endSize=16;endFill=0;html=1;rounded=0;entryX=0;entryY=0;entryDx=0;entryDy=0;" edge="1" parent="Q4glN3iVvKNpuo2n6neO-1" target="3aS7QNv1p8n4nwQDoTD7-0">
          <mxGeometry width="160" relative="1" as="geometry">
            <mxPoint x="290" y="510" as="sourcePoint" />
            <mxPoint x="450" y="510" as="targetPoint" />
          </mxGeometry>
        </mxCell>
      </root>
    </mxGraphModel>
  </diagram>
</mxfile>
